<svg width="26" height="20" viewBox="0 0 26 20" fill="none" xmlns="http://www.w3.org/2000/svg">
<path d="M4.66407 0.592477C4.97789 0.278663 5.48668 0.278663 5.80049 0.592477L22.4076 17.1996C22.7215 17.5134 22.7215 18.0222 22.4076 18.336C22.0938 18.6499 21.585 18.6499 21.2712 18.336L19.9241 16.9893C17.8377 18.3424 15.4921 19.1071 13.0001 19.1071C9.64882 19.1071 6.56957 17.7233 4.08661 15.4472C2.09536 13.6219 0.678711 11.3309 0.678711 9.99997C0.678711 8.2058 3.01556 5.04166 5.99944 3.06399L4.66407 1.7289C4.35026 1.41508 4.35026 0.906291 4.66407 0.592477ZM7.16197 4.22693C4.45703 5.92134 2.28585 8.78519 2.28585 9.99997C2.28585 10.7789 3.4813 12.7122 5.1726 14.2625C7.37757 16.2837 10.0839 17.5 13.0001 17.5C15.0506 17.5 16.9967 16.9008 18.7591 15.8238L16.3774 13.4422C15.4887 14.3145 14.2863 14.8214 13.0012 14.8214C10.3384 14.8214 8.17973 12.6628 8.17973 9.99997C8.17973 8.7146 8.68681 7.51226 9.55882 6.62383L7.16197 4.22693ZM13.0001 0.892831C16.3515 0.892831 19.4307 2.27666 21.9137 4.55271C23.9049 6.37802 25.3216 8.66901 25.3216 9.99997C25.3216 11.0659 24.4031 12.7702 23.0014 14.3443C22.7062 14.6758 22.1983 14.7052 21.8669 14.4101C21.5354 14.1149 21.506 13.607 21.8011 13.2755C22.9646 11.9691 23.7144 10.5776 23.7144 9.99997C23.7144 9.22104 22.519 7.28777 20.8277 5.73742C18.6227 3.7162 15.9164 2.49997 13.0001 2.49997C12.2273 2.49997 11.4681 2.58515 10.7246 2.7507C10.2915 2.84717 9.86208 2.5742 9.76562 2.14101C9.66916 1.70782 9.94213 1.27845 10.3753 1.18198C11.2323 0.991141 12.1086 0.892831 13.0001 0.892831ZM10.6956 7.76005C10.1202 8.35157 9.78687 9.14759 9.78687 9.99997C9.78687 11.7752 11.226 13.2143 13.0012 13.2143C13.8532 13.2143 14.6491 12.8812 15.2408 12.3058L10.6956 7.76005ZM13.872 5.99472C14.0497 5.58804 14.5234 5.40241 14.9301 5.5801C16.0427 6.06625 16.9355 6.95921 17.4214 8.07197C17.599 8.47868 17.4133 8.95236 17.0066 9.12997C16.5999 9.30757 16.1262 9.12185 15.9486 8.71513C15.6247 7.97351 15.0282 7.37681 14.2866 7.0528C13.8799 6.87511 13.6943 6.40139 13.872 5.99472Z" fill="white" fill-opacity="0.8"/>
</svg>
