<svg width="18" height="28" viewBox="0 0 18 28" fill="none" xmlns="http://www.w3.org/2000/svg">
<path fill-rule="evenodd" clip-rule="evenodd" d="M9 0C9.26518 0 9.5195 0.105342 9.70701 0.292852C9.89452 0.480362 9.99986 0.73468 9.99986 0.99986V24.5826L16.291 18.2894C16.4787 18.1017 16.7334 17.9962 16.9989 17.9962C17.2644 17.9962 17.519 18.1017 17.7068 18.2894C17.8945 18.4772 18 18.7318 18 18.9973C18 19.2628 17.8945 19.5175 17.7068 19.7052L9.7079 27.7041C9.61502 27.7972 9.50469 27.8711 9.38321 27.9215C9.26174 27.9719 9.13152 27.9979 9 27.9979C8.86848 27.9979 8.73826 27.9719 8.61679 27.9215C8.49531 27.8711 8.38498 27.7972 8.2921 27.7041L0.293222 19.7052C0.105475 19.5175 -6.25573e-09 19.2628 0 18.9973C6.25573e-09 18.7318 0.105475 18.4772 0.293222 18.2894C0.480969 18.1017 0.735608 17.9962 1.00112 17.9962C1.26664 17.9962 1.52128 18.1017 1.70902 18.2894L8.00014 24.5826V0.99986C8.00014 0.73468 8.10548 0.480362 8.29299 0.292852C8.4805 0.105342 8.73482 0 9 0Z" fill="#6A6A6A"/>
</svg>
