<svg width="18" height="18" viewBox="0 0 18 18" fill="none" xmlns="http://www.w3.org/2000/svg">
<path fill-rule="evenodd" clip-rule="evenodd" d="M15.75 15.1875C15.75 15.3367 15.6907 15.4797 15.5853 15.5852C15.4798 15.6907 15.3367 15.75 15.1875 15.75H8.43751C8.28832 15.75 8.14525 15.6907 8.03976 15.5852C7.93427 15.4797 7.87501 15.3367 7.87501 15.1875C7.87501 15.0383 7.93427 14.8952 8.03976 14.7897C8.14525 14.6842 8.28832 14.625 8.43751 14.625H13.8296L2.41426 3.21073C2.36196 3.15843 2.32047 3.09634 2.29217 3.02801C2.26387 2.95968 2.2493 2.88644 2.2493 2.81248C2.2493 2.73852 2.26387 2.66528 2.29217 2.59695C2.32047 2.52861 2.36196 2.46653 2.41426 2.41423C2.46656 2.36193 2.52865 2.32044 2.59698 2.29214C2.66531 2.26384 2.73855 2.24927 2.81251 2.24927C2.88647 2.24927 2.95971 2.26384 3.02804 2.29214C3.09637 2.32044 3.15846 2.36193 3.21076 2.41423L14.625 13.8296V8.43748C14.625 8.28829 14.6843 8.14522 14.7898 8.03973C14.8952 7.93424 15.0383 7.87498 15.1875 7.87498C15.3367 7.87498 15.4798 7.93424 15.5853 8.03973C15.6907 8.14522 15.75 8.28829 15.75 8.43748V15.1875Z" fill="url(#paint0_linear_42_574)"/>
<defs>
<linearGradient id="paint0_linear_42_574" x1="2.24162" y1="15.7664" x2="17.9502" y2="12.3153" gradientUnits="userSpaceOnUse">
<stop stop-color="#FF4D4D"/>
<stop offset="1" stop-color="#FF6A6A"/>
</linearGradient>
</defs>
</svg>
