<svg width="25" height="26" viewBox="0 0 25 26" fill="none" xmlns="http://www.w3.org/2000/svg">
<g clip-path="url(#clip0_230_14)">
<path d="M24.64 13C24.64 13 20.02 4.52997 12.32 4.52997C4.62 4.52997 0 13 0 13C0 13 4.62 21.47 12.32 21.47C20.02 21.47 24.64 13 24.64 13ZM1.80642 13C2.5499 11.8674 3.40643 10.8133 4.36282 9.85375C6.3448 7.86869 9.0552 6.06997 12.32 6.06997C15.5848 6.06997 18.2937 7.86869 20.2787 9.85375C21.2351 10.8133 22.0916 11.8674 22.8351 13C22.7468 13.1334 22.6467 13.2813 22.5348 13.4435C22.0189 14.1827 21.2566 15.1683 20.2787 16.1462C18.2937 18.1312 15.5833 19.93 12.32 19.93C9.05674 19.93 6.34634 18.1312 4.36128 16.1462C3.40489 15.1866 2.5499 14.1325 1.80642 13Z" fill="white" fill-opacity="0.8"/>
<path d="M12.3197 9.14999C11.2986 9.14999 10.3193 9.55561 9.59733 10.2776C8.87531 10.9996 8.46969 11.9789 8.46969 13C8.46969 14.0211 8.87531 15.0003 9.59733 15.7223C10.3193 16.4444 11.2986 16.85 12.3197 16.85C13.3408 16.85 14.32 16.4444 15.042 15.7223C15.7641 15.0003 16.1697 14.0211 16.1697 13C16.1697 11.9789 15.7641 10.9996 15.042 10.2776C14.32 9.55561 13.3408 9.14999 12.3197 9.14999ZM6.92969 13C6.92969 11.5705 7.49756 10.1995 8.50838 9.18868C9.5192 8.17786 10.8902 7.60999 12.3197 7.60999C13.7492 7.60999 15.1202 8.17786 16.131 9.18868C17.1418 10.1995 17.7097 11.5705 17.7097 13C17.7097 14.4295 17.1418 15.8005 16.131 16.8113C15.1202 17.8221 13.7492 18.39 12.3197 18.39C10.8902 18.39 9.5192 17.8221 8.50838 16.8113C7.49756 15.8005 6.92969 14.4295 6.92969 13Z" fill="white" fill-opacity="0.8"/>
</g>
<defs>
<clipPath id="clip0_230_14">
<rect width="24.64" height="24.64" fill="white" transform="translate(0 0.679993)"/>
</clipPath>
</defs>
</svg>
