<svg width="18" height="18" viewBox="0 0 18 18" fill="none" xmlns="http://www.w3.org/2000/svg">
<path fill-rule="evenodd" clip-rule="evenodd" d="M15.1875 2.24929C15.3367 2.24929 15.4797 2.30855 15.5852 2.41404C15.6907 2.51953 15.75 2.66261 15.75 2.81179L15.75 9.56179C15.75 9.71097 15.6907 9.85405 15.5852 9.95954C15.4797 10.065 15.3367 10.1243 15.1875 10.1243C15.0383 10.1243 14.8952 10.065 14.7897 9.95954C14.6842 9.85405 14.625 9.71097 14.625 9.56179L14.625 4.16966L3.21073 15.585C3.15843 15.6373 3.09634 15.6788 3.02801 15.7071C2.95968 15.7354 2.88644 15.75 2.81248 15.75C2.73852 15.75 2.66528 15.7354 2.59695 15.7071C2.52861 15.6788 2.46653 15.6373 2.41423 15.585C2.36193 15.5327 2.32044 15.4707 2.29214 15.4023C2.26384 15.334 2.24927 15.2608 2.24927 15.1868C2.24927 15.1128 2.26384 15.0396 2.29214 14.9713C2.32044 14.9029 2.36193 14.8408 2.41423 14.7885L13.8296 3.37429L8.43748 3.37429C8.28829 3.37429 8.14522 3.31503 8.03973 3.20954C7.93424 3.10405 7.87498 2.96097 7.87498 2.81179C7.87498 2.66261 7.93424 2.51953 8.03973 2.41404C8.14522 2.30855 8.28829 2.24929 8.43748 2.24929L15.1875 2.24929Z" fill="#20F4CF"/>
</svg>
